<?xml version="1.0" ?><svg id="Layer_1" style="enable-background:new 0 0 70 70;" version="1.1" viewBox="0 0 70 70" xml:space="preserve" xmlns="http://www.w3.org/2000/svg" xmlns:xlink="http://www.w3.org/1999/xlink"><style type="text/css">
	.st0{fill:#A5CEB9;}
	.st1{opacity:0.3;}
	.st2{fill:#FFFFFF;}
	.st3{fill:#F2F6F7;}
	.st4{opacity:0.2;}
	.st5{fill:#B2DDC9;}
	.st6{fill:#EAAAA8;}
	.st7{fill:#D8E3EA;}
	.st8{fill:#E29898;}
	.st9{fill:#FCD786;}
	.st10{fill:#FFE98A;}
	.st11{fill:#99C6DD;}
	.st12{fill:#B0D6EC;}
	.st13{opacity:0.4;}
	.st14{opacity:0.25;}
	.st15{opacity:0.2;fill:#FFFFFF;}
	.st16{opacity:4.000000e-02;}
</style><g><g><g><path class="st9" d="M56.3,48.5c-0.3,0.5-0.9,0.7-1.5,0.7l-16.7-0.4c-0.6,0-1.1-0.3-1.4-0.8c-0.3-0.5-0.4-1.1-0.2-1.6l3.1-8.9     c0.3-0.7,1-1.2,1.8-1.2l10.9,0.2c0.8,0,1.5,0.5,1.7,1.3l2.7,9C56.8,47.4,56.7,48,56.3,48.5z"/><path class="st9" d="M18.2,29.1c0.9-0.1,1.8-0.2,2.6-0.2c-0.2-0.3-0.4-0.6-0.6-0.9c0.3,0.2,0.6,0.4,0.9,0.6     c0-0.9,0.1-1.8,0.3-2.6c0.1,0.9,0.2,1.8,0.2,2.6c0.3-0.2,0.6-0.4,0.9-0.6c-0.2,0.3-0.4,0.6-0.6,0.9c0.9,0,1.8,0.1,2.6,0.3     c-0.9,0.1-1.8,0.2-2.6,0.2c0.2,0.3,0.4,0.6,0.6,0.9c-0.3-0.2-0.6-0.4-0.9-0.6c0,0.9-0.1,1.8-0.3,2.6c-0.1-0.9-0.2-1.8-0.2-2.6     c-0.3,0.2-0.6,0.4-0.9,0.6c0.2-0.3,0.4-0.6,0.6-0.9C19.9,29.3,19,29.3,18.2,29.1z"/><path class="st9" d="M25.1,16.9c0.9-0.1,1.8-0.2,2.6-0.2c-0.2-0.3-0.4-0.6-0.6-0.9c0.3,0.2,0.6,0.4,0.9,0.6     c0-0.9,0.1-1.8,0.3-2.6c0.1,0.9,0.2,1.8,0.2,2.6c0.3-0.2,0.6-0.4,0.9-0.6c-0.2,0.3-0.4,0.6-0.6,0.9c0.9,0,1.8,0.1,2.6,0.3     c-0.9,0.1-1.8,0.2-2.6,0.2c0.2,0.3,0.4,0.6,0.6,0.9c-0.3-0.2-0.6-0.4-0.9-0.6c0,0.9-0.1,1.8-0.3,2.6c-0.1-0.9-0.2-1.8-0.2-2.6     c-0.3,0.2-0.6,0.4-0.9,0.6c0.2-0.3,0.4-0.6,0.6-0.9C26.9,17.2,26,17.1,25.1,16.9z"/><path class="st9" d="M33.6,46.4c0.2,0.6,0.1,1.2-0.3,1.6c-0.4,0.5-0.9,0.7-1.5,0.7l-16.7-0.4c-0.6,0-1.1-0.3-1.4-0.8     c-0.3-0.5-0.4-1.1-0.2-1.6l3.1-8.9c0.3-0.7,1-1.2,1.7-1.2L29.2,36c0.8,0,1.5,0.5,1.7,1.3L33.6,46.4z"/><path class="st9" d="M30.1,20.3L41,20.6c0.8,0,1.5,0.5,1.7,1.3l2.7,9c0.2,0.6,0.1,1.1-0.3,1.6c-0.3,0.5-0.9,0.7-1.5,0.7     l-16.7-0.4c-0.6,0-1.1-0.3-1.4-0.8c-0.3-0.5-0.4-1.1-0.2-1.6l3.1-8.9C28.6,20.8,29.3,20.3,30.1,20.3z"/><path class="st9" d="M46,30.1c0.9-0.1,1.8-0.2,2.6-0.2c-0.2-0.3-0.4-0.6-0.6-0.9c0.3,0.2,0.6,0.4,0.9,0.6c0-0.9,0.1-1.8,0.3-2.6     c0.1,0.9,0.2,1.8,0.2,2.6c0.3-0.2,0.6-0.4,0.9-0.6c-0.2,0.3-0.4,0.6-0.6,0.9c0.9,0,1.8,0.1,2.6,0.3c-0.9,0.1-1.8,0.2-2.6,0.2     c0.2,0.3,0.4,0.6,0.6,0.9c-0.3-0.2-0.6-0.4-0.9-0.6c0,0.9-0.1,1.8-0.3,2.6c-0.1-0.9-0.2-1.8-0.2-2.6c-0.3,0.2-0.6,0.4-0.9,0.6     c0.2-0.3,0.4-0.6,0.6-0.9C47.8,30.3,46.9,30.3,46,30.1z"/></g><g><path class="st10" d="M30.9,37.3c-0.2-0.8-0.9-1.3-1.7-1.3l-10.9-0.2c-0.8,0-1.5,0.5-1.7,1.2l-3.1,8.9c-0.2,0.5-0.1,1.1,0.2,1.6     c0.3,0.5,0.9,0.8,1.4,0.8l16.7,0.4c0.6,0,1.1-0.3,1.5-0.7c0.4-0.5,0.5-1.1,0.3-1.6L30.9,37.3z M17.6,44.8l1.9-5.3l8.3,0.2     l1.6,5.4L17.6,44.8z"/><path class="st10" d="M53.9,37.8c-0.2-0.8-0.9-1.3-1.7-1.3l-10.9-0.2c-0.8,0-1.5,0.5-1.7,1.2l-3.1,8.9c-0.2,0.5-0.1,1.1,0.2,1.6     c0.3,0.5,0.9,0.8,1.4,0.8l16.7,0.4c0.6,0,1.1-0.3,1.5-0.7c0.4-0.5,0.5-1.1,0.3-1.6L53.9,37.8z M40.7,45.3l1.9-5.3l8.3,0.2     l1.6,5.4L40.7,45.3z"/><path class="st10" d="M26.9,32.8l16.7,0.4c0.6,0,1.1-0.3,1.5-0.7c0.4-0.5,0.5-1.1,0.3-1.6l-2.7-9c-0.2-0.8-0.9-1.3-1.7-1.3     l-10.9-0.2c-0.8,0-1.5,0.5-1.7,1.2l-3.1,8.9c-0.2,0.5-0.1,1.1,0.2,1.6C25.8,32.5,26.4,32.8,26.9,32.8z M31.4,24l8.3,0.2l1.6,5.4     l-11.8-0.3L31.4,24z"/><path class="st10" d="M21.8,29c0.2-0.3,0.5-0.5,0.6-0.9c-0.3,0.2-0.6,0.4-0.9,0.6c0-0.9,0-1.8-0.2-2.6c-0.2,0.9-0.2,1.8-0.3,2.6     c-0.3-0.2-0.5-0.5-0.9-0.6c0.2,0.3,0.4,0.6,0.6,0.9c-0.9,0-1.8,0-2.6,0.2c0.9,0.2,1.8,0.2,2.6,0.3c-0.2,0.3-0.5,0.5-0.6,0.9     c0.3-0.2,0.6-0.4,0.9-0.6c0,0.9,0,1.8,0.2,2.6c0.2-0.9,0.2-1.8,0.3-2.6c0.3,0.2,0.5,0.5,0.9,0.6c-0.2-0.3-0.4-0.6-0.6-0.9     c0.9,0,1.8,0,2.6-0.2C23.5,29.1,22.7,29,21.8,29z"/><path class="st10" d="M27.8,17.2c-0.2,0.3-0.5,0.5-0.6,0.9c0.3-0.2,0.6-0.4,0.9-0.6c0,0.9,0,1.8,0.2,2.6c0.2-0.9,0.2-1.8,0.3-2.6     c0.3,0.2,0.5,0.5,0.9,0.6c-0.2-0.3-0.4-0.6-0.6-0.9c0.9,0,1.8,0,2.6-0.2c-0.9-0.2-1.8-0.2-2.6-0.3c0.2-0.3,0.5-0.5,0.6-0.9     c-0.3,0.2-0.6,0.4-0.9,0.6c0-0.9,0-1.8-0.2-2.6c-0.2,0.9-0.2,1.8-0.3,2.6c-0.3-0.2-0.5-0.5-0.9-0.6c0.2,0.3,0.4,0.6,0.6,0.9     c-0.9,0-1.8,0-2.6,0.2C26,17.1,26.9,17.2,27.8,17.2z"/><path class="st10" d="M48.7,30.4c-0.2,0.3-0.5,0.5-0.6,0.9c0.3-0.2,0.6-0.4,0.9-0.6c0,0.9,0,1.8,0.2,2.6c0.2-0.9,0.2-1.8,0.3-2.6     c0.3,0.2,0.5,0.5,0.9,0.6c-0.2-0.3-0.4-0.6-0.6-0.9c0.9,0,1.8,0,2.6-0.2c-0.9-0.2-1.8-0.2-2.6-0.3c0.2-0.3,0.5-0.5,0.6-0.9     c-0.3,0.2-0.6,0.4-0.9,0.6c0-0.9,0-1.8-0.2-2.6c-0.2,0.9-0.2,1.8-0.3,2.6c-0.3-0.2-0.5-0.5-0.9-0.6c0.2,0.3,0.4,0.6,0.6,0.9     c-0.9,0-1.8,0-2.6,0.2C46.9,30.3,47.8,30.3,48.7,30.4z"/></g></g><g class="st14"><g><path class="st2" d="M18.2,29.1c0.9-0.1,1.8-0.2,2.6-0.2c-0.2-0.3-0.4-0.6-0.6-0.9c0.3,0.2,0.6,0.4,0.9,0.6     c0-0.9,0.1-1.8,0.3-2.6c0.1,0.9,0.2,1.8,0.2,2.6c0.3-0.2,0.6-0.4,0.9-0.6c-0.2,0.3-0.4,0.6-0.6,0.9c0.9,0,1.8,0.1,2.6,0.3     c-0.9,0.1-1.8,0.2-2.6,0.2c0.2,0.3,0.4,0.6,0.6,0.9c-0.3-0.2-0.6-0.4-0.9-0.6c0,0.9-0.1,1.8-0.3,2.6c-0.1-0.9-0.2-1.8-0.2-2.6     c-0.3,0.2-0.6,0.4-0.9,0.6c0.2-0.3,0.4-0.6,0.6-0.9C19.9,29.3,19,29.3,18.2,29.1z"/><path class="st2" d="M25.1,16.9c0.9-0.1,1.8-0.2,2.6-0.2c-0.2-0.3-0.4-0.6-0.6-0.9c0.3,0.2,0.6,0.4,0.9,0.6     c0-0.9,0.1-1.8,0.3-2.6c0.1,0.9,0.2,1.8,0.2,2.6c0.3-0.2,0.6-0.4,0.9-0.6c-0.2,0.3-0.4,0.6-0.6,0.9c0.9,0,1.8,0.1,2.6,0.3     c-0.9,0.1-1.8,0.2-2.6,0.2c0.2,0.3,0.4,0.6,0.6,0.9c-0.3-0.2-0.6-0.4-0.9-0.6c0,0.9-0.1,1.8-0.3,2.6c-0.1-0.9-0.2-1.8-0.2-2.6     c-0.3,0.2-0.6,0.4-0.9,0.6c0.2-0.3,0.4-0.6,0.6-0.9C26.9,17.2,26,17.1,25.1,16.9z"/><path class="st2" d="M33.6,46.4c0.2,0.6,0.1,1.2-0.3,1.6c-0.4,0.5-0.9,0.7-1.5,0.7l-16.7-0.4c-0.6,0-1.1-0.3-1.4-0.8     c-0.3-0.5-0.4-1.1-0.2-1.6l3.1-8.9c0.3-0.7,1-1.2,1.7-1.2L29.2,36c0.8,0,1.5,0.5,1.7,1.3L33.6,46.4z"/><path class="st2" d="M35.5,20.4l-5.4-0.1c-0.8,0-1.5,0.5-1.8,1.2l-3.1,8.9c-0.2,0.5-0.1,1.1,0.2,1.6c0.3,0.5,0.9,0.8,1.4,0.8     l8.6,0.2V20.4z"/></g><g><path class="st2" d="M30.9,37.3c-0.2-0.8-0.9-1.3-1.7-1.3l-10.9-0.2c-0.8,0-1.5,0.5-1.7,1.2l-3.1,8.9c-0.2,0.5-0.1,1.1,0.2,1.6     c0.3,0.5,0.9,0.8,1.4,0.8l16.7,0.4c0.6,0,1.1-0.3,1.5-0.7c0.4-0.5,0.5-1.1,0.3-1.6L30.9,37.3z M17.6,44.8l1.9-5.3l8.3,0.2     l1.6,5.4L17.6,44.8z"/><path class="st2" d="M35.5,29.4l-6-0.1l1.9-5.3l4.1,0.1v-3.6l-5.4-0.1c-0.8,0-1.5,0.5-1.7,1.2l-3.1,8.9c-0.2,0.5-0.1,1.1,0.2,1.6     c0.3,0.5,0.9,0.8,1.4,0.8l8.6,0.2V29.4z"/><path class="st2" d="M21.8,29c0.2-0.3,0.5-0.5,0.6-0.9c-0.3,0.2-0.6,0.4-0.9,0.6c0-0.9,0-1.8-0.2-2.6c-0.2,0.9-0.2,1.8-0.3,2.6     c-0.3-0.2-0.5-0.5-0.9-0.6c0.2,0.3,0.4,0.6,0.6,0.9c-0.9,0-1.8,0-2.6,0.2c0.9,0.2,1.8,0.2,2.6,0.3c-0.2,0.3-0.5,0.5-0.6,0.9     c0.3-0.2,0.6-0.4,0.9-0.6c0,0.9,0,1.8,0.2,2.6c0.2-0.9,0.2-1.8,0.3-2.6c0.3,0.2,0.5,0.5,0.9,0.6c-0.2-0.3-0.4-0.6-0.6-0.9     c0.9,0,1.8,0,2.6-0.2C23.5,29.1,22.7,29,21.8,29z"/><path class="st2" d="M27.8,17.2c-0.2,0.3-0.5,0.5-0.6,0.9c0.3-0.2,0.6-0.4,0.9-0.6c0,0.9,0,1.8,0.2,2.6c0.2-0.9,0.2-1.8,0.3-2.6     c0.3,0.2,0.5,0.5,0.9,0.6c-0.2-0.3-0.4-0.6-0.6-0.9c0.9,0,1.8,0,2.6-0.2c-0.9-0.2-1.8-0.2-2.6-0.3c0.2-0.3,0.5-0.5,0.6-0.9     c-0.3,0.2-0.6,0.4-0.9,0.6c0-0.9,0-1.8-0.2-2.6c-0.2,0.9-0.2,1.8-0.3,2.6c-0.3-0.2-0.5-0.5-0.9-0.6c0.2,0.3,0.4,0.6,0.6,0.9     c-0.9,0-1.8,0-2.6,0.2C26,17.1,26.9,17.2,27.8,17.2z"/></g></g></g></svg>